<svg version="1.0" xmlns="http://www.w3.org/2000/svg" style="" preserveAspectRatio="xMidYMid meet" viewBox="102.33 104.83 291 293.12">
<g fill="#000000FF" stroke="#000000FF">
<path d="M 239.000 107.679 C 216.078 111.368 189.592 121.455 176.416 131.512 C 173.828 133.487 171.154 134.889 170.473 134.628 C 169.154 134.122 153.000 146.521 153.000 148.039 C 153.000 148.533 153.629 148.696 154.399 148.400 C 157.843 147.079 156.492 150.147 151.555 154.858 C 145.833 160.319 144.282 161.209 145.965 158.066 C 148.105 154.067 146.890 154.782 144.119 159.152 C 141.373 163.481 138.000 166.104 138.000 163.910 C 138.000 163.344 137.539 163.167 136.976 163.515 C 135.249 164.582 123.963 181.882 121.429 187.347 C 118.907 192.784 119.549 194.863 122.405 190.505 C 124.359 187.523 126.000 188.031 126.000 191.618 C 126.000 192.993 126.419 193.859 126.931 193.543 C 129.074 192.218 128.792 195.197 126.119 202.126 C 122.834 210.642 121.854 213.780 119.366 223.750 C 118.191 228.459 117.064 231.000 116.150 231.000 C 114.767 231.000 114.933 226.584 116.638 218.062 C 117.095 215.773 116.846 215.420 114.835 215.516 C 113.551 215.577 111.301 216.215 109.836 216.934 C 107.438 218.112 107.046 219.104 105.911 226.871 C 103.450 243.701 105.441 275.930 109.540 285.645 C 110.270 287.375 110.644 289.643 110.372 290.686 C 110.087 291.776 112.247 297.513 115.450 304.177 C 118.516 310.554 120.773 316.429 120.464 317.233 C 120.019 318.393 123.514 323.600 127.690 327.998 C 127.951 328.273 128.759 327.683 129.486 326.689 C 130.320 325.548 131.050 325.272 131.463 325.940 C 131.823 326.523 132.499 327.000 132.965 327.000 C 134.273 327.000 132.934 322.925 130.179 318.525 C 127.459 314.180 123.000 304.519 123.000 302.971 C 123.000 300.093 125.401 303.162 131.041 313.250 C 137.395 324.616 141.327 330.402 148.864 339.482 C 151.139 342.222 153.000 345.015 153.000 345.689 C 153.000 347.603 171.294 363.414 180.343 369.320 C 198.397 381.102 210.031 385.990 235.000 392.284 C 246.903 395.285 248.432 395.435 267.000 395.432 C 284.796 395.429 287.549 395.185 298.500 392.640 C 312.900 389.294 330.561 382.544 341.500 376.205 C 345.900 373.655 351.819 370.429 354.654 369.035 C 360.555 366.132 376.941 349.394 383.870 339.192 C 387.598 333.702 387.927 332.784 386.629 331.486 C 385.331 330.189 384.388 330.996 378.714 338.256 C 367.663 352.397 352.025 365.924 339.283 372.364 C 329.883 377.114 327.501 374.650 336.332 369.310 C 350.956 360.465 375.006 337.853 379.700 328.534 C 380.758 326.435 380.824 325.885 379.914 326.750 C 377.759 328.800 377.087 328.185 378.000 325.000 C 378.695 322.578 378.559 322.000 377.295 322.000 C 376.434 322.000 374.671 320.858 373.378 319.463 C 371.462 317.395 371.302 316.821 372.514 316.356 C 373.331 316.043 374.000 315.127 374.000 314.322 C 374.000 313.517 371.205 316.153 367.789 320.179 C 359.171 330.338 350.170 339.000 348.233 339.000 C 347.036 339.000 347.427 338.143 349.714 335.750 C 351.423 333.963 355.277 329.125 358.279 325.000 C 361.281 320.875 363.234 318.078 362.619 318.783 C 355.149 327.353 341.544 341.003 336.952 344.537 C 330.667 349.373 314.543 357.737 306.500 360.333 C 300.698 362.206 284.603 366.000 282.461 366.000 C 279.102 366.000 281.363 364.088 285.864 363.123 C 292.411 361.718 310.289 355.956 309.755 355.421 C 309.520 355.187 306.667 355.911 303.414 357.032 C 293.813 360.338 284.751 362.132 280.915 361.485 C 278.944 361.152 272.515 361.399 266.629 362.032 C 258.161 362.944 255.612 362.923 254.418 361.932 C 253.588 361.243 253.131 360.100 253.403 359.391 C 254.185 357.354 250.394 356.664 237.683 356.527 C 228.550 356.429 225.657 356.071 224.948 354.950 C 224.318 353.954 224.026 353.891 224.015 354.750 C 224.007 355.438 223.277 356.000 222.393 356.000 C 221.401 356.000 220.999 355.446 221.342 354.551 C 221.691 353.642 221.078 352.846 219.699 352.416 C 216.352 351.370 202.010 343.080 197.515 339.592 C 191.721 335.096 173.888 319.201 171.192 316.129 C 169.923 314.683 167.624 311.025 166.083 308.000 C 163.189 302.319 154.796 279.178 153.389 273.000 C 152.951 271.075 152.695 261.400 152.820 251.500 C 152.946 241.600 152.638 232.880 152.136 232.122 C 149.884 228.720 163.734 197.783 167.776 197.187 C 169.766 196.894 173.068 193.477 179.697 184.855 C 189.569 172.014 192.624 169.116 201.500 164.171 C 212.228 158.194 230.681 151.905 244.500 149.514 C 250.000 148.563 254.928 147.383 255.450 146.892 C 257.186 145.261 245.643 145.951 235.615 148.077 C 230.228 149.219 225.573 149.906 225.271 149.605 C 224.331 148.664 229.833 147.033 239.862 145.278 C 245.163 144.350 249.650 143.233 249.833 142.796 C 250.220 141.873 273.063 141.703 275.412 142.605 C 276.279 142.937 276.771 143.561 276.506 143.991 C 276.003 144.805 286.836 146.497 287.608 145.726 C 287.849 145.484 287.788 144.612 287.472 143.789 C 287.105 142.831 283.762 141.663 278.199 140.547 C 266.783 138.259 266.000 138.028 266.000 136.952 C 266.000 133.545 284.873 136.132 303.500 142.092 C 320.786 147.623 335.440 156.724 351.000 171.595 C 355.125 175.537 359.404 179.036 360.509 179.372 C 361.614 179.707 362.964 180.832 363.509 181.871 C 364.054 182.909 366.247 186.391 368.383 189.607 C 372.422 195.690 381.294 212.800 382.482 216.798 C 382.858 218.062 382.669 219.694 382.061 220.426 C 381.242 221.413 381.594 224.298 383.428 231.628 C 384.787 237.058 386.094 242.400 386.333 243.500 C 386.572 244.600 386.820 243.363 386.884 240.750 C 386.948 238.138 387.458 236.000 388.018 236.000 C 388.600 236.000 388.959 233.816 388.857 230.909 C 388.740 227.620 389.140 225.531 389.988 225.008 C 393.706 222.710 384.097 194.722 375.101 181.647 C 369.968 174.186 371.523 172.288 377.268 179.000 C 379.151 181.200 380.986 183.000 381.346 183.000 C 384.602 183.000 376.505 171.574 364.151 158.734 C 351.633 145.725 338.422 135.763 324.169 128.585 C 319.130 126.048 317.000 124.421 317.000 123.110 C 317.000 122.084 316.317 120.678 315.481 119.984 C 314.241 118.955 313.615 119.038 312.064 120.442 C 310.578 121.787 309.729 121.925 308.147 121.079 C 304.289 119.014 283.442 114.161 273.500 113.014 C 266.248 112.177 259.764 112.143 249.906 112.891 C 237.013 113.869 217.312 117.692 212.845 120.083 C 211.558 120.772 210.432 120.832 209.844 120.244 C 208.082 118.482 225.834 113.139 239.000 111.468 C 244.831 110.728 248.351 109.378 247.604 108.168 C 247.088 107.334 242.696 107.084 239.000 107.679 M 219.165 139.388 C 218.980 139.877 219.382 140.618 220.057 141.035 C 221.628 142.006 216.615 145.171 204.000 151.173 C 198.775 153.659 189.775 158.647 184.000 162.258 C 172.877 169.214 172.210 167.826 182.722 159.601 C 187.214 156.087 187.387 155.840 183.929 157.873 C 180.080 160.137 173.973 164.818 169.359 169.041 C 165.154 172.889 165.666 170.916 170.042 166.406 C 179.075 157.098 191.874 148.564 206.853 141.861 C 214.855 138.280 219.971 137.253 219.165 139.388 M 200.313 156.500 C 191.837 161.405 180.498 171.420 172.660 180.923 C 168.944 185.429 166.462 185.996 169.280 181.695 C 172.041 177.482 185.156 164.056 189.893 160.593 C 195.914 156.192 208.379 149.619 208.702 150.675 C 208.840 151.129 205.065 153.750 200.313 156.500 M 258.000 137.000 C 258.000 137.565 255.147 138.000 251.441 138.000 C 247.323 138.000 245.112 137.628 245.500 137.000 C 245.840 136.450 248.791 136.000 252.059 136.000 C 255.353 136.000 258.000 136.446 258.000 137.000 M 169.000 187.000 C 169.000 187.550 168.550 188.000 168.000 188.000 C 167.450 188.000 167.000 188.575 167.000 189.278 C 167.000 190.686 163.079 194.413 162.357 193.691 C 162.108 193.442 162.601 192.542 163.452 191.690 C 164.304 190.839 165.000 189.473 165.000 188.655 C 165.000 187.303 166.283 186.286 168.250 186.079 C 168.663 186.036 169.000 186.450 169.000 187.000 M 155.869 341.342 C 156.481 342.080 156.690 342.976 156.333 343.333 C 155.583 344.084 153.000 342.181 153.000 340.878 C 153.000 339.561 154.607 339.821 155.869 341.342 M 199.000 342.893 C 199.000 344.120 196.183 345.105 195.559 344.096 C 195.282 343.647 195.342 342.991 195.694 342.639 C 196.647 341.686 199.000 341.867 199.000 342.893 "/></g>
<g fill="#000000FF" stroke="#000000FF">
<path d="M 222.216 169.250 C 221.650 169.938 220.879 172.750 220.502 175.500 C 220.126 178.250 219.441 182.075 218.982 184.000 C 218.523 185.925 217.880 189.750 217.554 192.500 C 217.228 195.250 216.749 198.625 216.489 200.000 C 216.228 201.375 215.565 206.325 215.013 211.000 C 214.462 215.675 213.357 224.859 212.558 231.408 C 211.759 237.958 211.165 243.583 211.239 243.908 C 211.425 244.736 210.047 256.405 208.984 263.000 C 207.945 269.451 207.348 275.166 206.427 287.500 C 206.057 292.450 205.421 297.121 205.014 297.881 C 204.607 298.640 204.888 301.299 205.637 303.790 C 206.387 306.280 207.000 309.806 207.000 311.626 C 207.000 314.078 207.913 315.846 210.533 318.467 C 212.477 320.410 214.616 322.000 215.287 322.000 C 215.957 322.000 218.722 323.575 221.429 325.500 C 227.949 330.135 230.377 329.954 236.438 324.378 C 240.958 320.219 241.291 319.609 240.367 317.162 C 239.813 315.693 239.661 313.361 240.030 311.981 C 240.399 310.601 240.607 301.715 240.492 292.236 C 240.269 273.781 240.425 273.261 245.115 276.799 C 250.989 281.230 270.379 292.933 279.494 297.549 C 284.998 300.336 294.726 305.402 301.113 308.808 C 312.481 314.869 315.823 316.140 314.420 313.870 C 313.992 313.178 314.260 312.936 315.111 313.245 C 315.875 313.523 316.388 314.256 316.250 314.875 C 316.112 315.494 317.349 316.056 319.000 316.125 C 322.155 316.256 324.487 316.663 323.300 316.875 C 322.915 316.944 323.140 317.540 323.800 318.200 C 324.460 318.860 325.000 318.965 325.000 318.433 C 325.000 317.901 326.800 317.419 329.000 317.361 C 331.200 317.304 333.000 317.596 333.000 318.012 C 333.000 318.427 333.901 319.002 335.001 319.290 C 338.182 320.122 336.177 317.979 332.128 316.219 C 330.133 315.352 328.050 314.610 327.500 314.571 C 326.950 314.532 326.371 313.727 326.214 312.783 C 325.950 311.204 326.274 311.223 330.214 313.011 C 332.571 314.081 335.175 314.969 336.000 314.984 C 336.825 315.000 338.850 315.709 340.500 316.560 C 343.454 318.084 343.469 318.079 341.500 316.225 C 339.222 314.081 326.854 308.747 325.211 309.201 C 324.509 309.394 324.437 308.979 325.008 308.029 C 325.766 306.766 326.644 306.882 331.196 308.844 C 334.113 310.102 337.175 311.286 338.000 311.477 C 338.825 311.667 340.800 312.325 342.389 312.939 C 343.977 313.553 345.509 313.824 345.792 313.541 C 346.376 312.958 339.294 309.794 337.000 309.613 C 335.057 309.460 329.000 305.804 329.000 304.784 C 329.000 303.615 330.146 303.833 331.921 305.341 C 333.905 307.027 344.975 310.133 346.231 309.357 C 346.745 309.039 345.752 307.919 344.023 306.868 C 342.294 305.816 340.462 305.214 339.951 305.530 C 339.441 305.846 339.270 305.460 339.572 304.672 C 340.166 303.126 335.651 299.000 333.365 299.000 C 332.614 299.000 331.199 298.213 330.219 297.250 C 329.240 296.288 326.652 294.678 324.469 293.674 C 319.394 291.340 312.490 286.934 294.426 274.500 C 286.436 269.000 278.233 263.671 276.199 262.659 C 274.165 261.646 269.655 258.951 266.178 256.671 L 259.855 252.524 263.544 249.512 C 265.573 247.855 271.840 242.000 277.471 236.500 C 288.886 225.350 302.008 213.951 308.331 209.692 C 310.624 208.147 312.654 206.448 312.842 205.917 C 313.030 205.385 314.605 204.309 316.342 203.526 C 318.079 202.742 321.211 200.596 323.303 198.756 C 326.853 195.634 327.032 195.214 325.990 192.455 C 324.659 188.933 320.167 184.000 318.291 184.000 C 317.558 184.000 316.445 182.875 315.818 181.500 C 315.192 180.125 314.083 179.000 313.355 179.000 C 312.626 179.000 309.836 177.650 307.154 176.000 C 304.473 174.350 301.579 173.000 300.723 173.000 C 299.197 173.000 283.306 188.602 278.824 194.500 C 273.358 201.695 247.734 231.000 246.909 231.000 C 245.751 231.000 245.772 230.362 247.087 225.625 C 247.679 223.494 248.345 220.794 248.567 219.625 C 248.790 218.456 249.459 215.144 250.054 212.264 C 250.649 209.385 250.804 206.491 250.397 205.834 C 249.991 205.177 249.758 202.470 249.879 199.820 C 250.000 197.169 249.700 195.000 249.214 195.000 C 248.727 195.000 248.243 192.188 248.139 188.750 C 247.973 183.273 247.613 182.225 245.225 180.277 C 243.726 179.054 241.752 177.406 240.837 176.614 C 239.375 175.348 224.715 168.000 223.651 168.000 C 223.428 168.000 222.782 168.563 222.216 169.250 M 269.857 265.534 C 271.586 266.988 273.000 267.984 273.000 267.747 C 273.000 267.510 275.737 269.945 279.083 273.158 C 285.364 279.190 286.537 281.357 280.595 275.950 C 277.365 273.011 275.935 271.979 263.699 263.762 C 260.637 261.706 257.832 259.537 257.465 258.944 C 256.448 257.298 266.290 262.532 269.857 265.534 M 262.508 265.610 C 267.493 268.216 272.639 272.695 271.713 273.621 C 271.237 274.096 256.000 264.176 256.000 263.391 C 256.000 262.526 257.751 263.123 262.508 265.610 M 263.425 271.598 C 270.045 276.653 268.348 277.076 261.402 272.102 C 258.252 269.846 256.358 268.000 257.193 268.000 C 258.029 268.000 260.833 269.619 263.425 271.598 M 317.843 305.658 C 321.323 306.509 322.602 308.462 319.786 308.622 C 318.606 308.689 317.160 308.336 316.571 307.838 C 315.982 307.340 314.600 306.235 313.500 305.384 C 311.721 304.008 311.704 303.902 313.343 304.423 C 314.356 304.745 316.381 305.301 317.843 305.658 M 320.856 300.844 C 322.860 302.408 325.400 304.242 326.500 304.920 L 328.500 306.151 326.500 305.424 C 325.400 305.024 323.375 304.576 322.000 304.429 C 320.625 304.283 319.922 304.126 320.437 304.081 C 320.952 304.037 320.081 302.650 318.500 301.000 C 314.868 297.209 316.095 297.128 320.856 300.844 "/></g>
</svg>